<svg width="270" height="56" viewBox="0 0 270 56" fill="none" xmlns="http://www.w3.org/2000/svg">
<path d="M145.288 50.4209L147.271 42.0469H148.378L148.631 43.4414L146.519 52H145.329L145.288 50.4209ZM144.27 42.0469L145.91 50.4209L145.773 52H144.447L142.239 42.0469H144.27ZM150.374 50.3867L151.994 42.0469H154.024L151.823 52H150.497L150.374 50.3867ZM149 42.0469L150.996 50.4551L150.941 52H149.752L147.626 43.4346L147.899 42.0469H149ZM163.314 46.791V47.2627C163.314 48.0192 163.212 48.6982 163.007 49.2998C162.802 49.9014 162.512 50.4141 162.139 50.8379C161.765 51.2572 161.318 51.5785 160.799 51.8018C160.284 52.0251 159.712 52.1367 159.083 52.1367C158.459 52.1367 157.887 52.0251 157.367 51.8018C156.852 51.5785 156.406 51.2572 156.027 50.8379C155.649 50.4141 155.355 49.9014 155.146 49.2998C154.94 48.6982 154.838 48.0192 154.838 47.2627V46.791C154.838 46.0299 154.94 45.3509 155.146 44.7539C155.351 44.1523 155.64 43.6396 156.014 43.2158C156.392 42.792 156.839 42.4684 157.354 42.2451C157.873 42.0218 158.445 41.9102 159.069 41.9102C159.698 41.9102 160.27 42.0218 160.785 42.2451C161.305 42.4684 161.751 42.792 162.125 43.2158C162.503 43.6396 162.795 44.1523 163 44.7539C163.21 45.3509 163.314 46.0299 163.314 46.791ZM161.243 47.2627V46.7773C161.243 46.2487 161.195 45.7839 161.1 45.3828C161.004 44.9818 160.863 44.6445 160.676 44.3711C160.489 44.0977 160.261 43.8926 159.992 43.7559C159.723 43.6146 159.416 43.5439 159.069 43.5439C158.723 43.5439 158.415 43.6146 158.146 43.7559C157.882 43.8926 157.657 44.0977 157.47 44.3711C157.287 44.6445 157.148 44.9818 157.053 45.3828C156.957 45.7839 156.909 46.2487 156.909 46.7773V47.2627C156.909 47.7868 156.957 48.2516 157.053 48.6572C157.148 49.0583 157.29 49.3978 157.477 49.6758C157.663 49.9492 157.891 50.1566 158.16 50.2979C158.429 50.4391 158.737 50.5098 159.083 50.5098C159.429 50.5098 159.737 50.4391 160.006 50.2979C160.275 50.1566 160.5 49.9492 160.683 49.6758C160.865 49.3978 161.004 49.0583 161.1 48.6572C161.195 48.2516 161.243 47.7868 161.243 47.2627ZM164.791 42.0469H168.503C169.264 42.0469 169.918 42.1608 170.465 42.3887C171.016 42.6165 171.44 42.9538 171.736 43.4004C172.033 43.847 172.181 44.3962 172.181 45.0479C172.181 45.5811 172.09 46.0391 171.907 46.4219C171.729 46.8001 171.477 47.1169 171.148 47.3721C170.825 47.6227 170.444 47.8232 170.007 47.9736L169.357 48.3154H166.131L166.117 46.7158H168.517C168.877 46.7158 169.175 46.652 169.412 46.5244C169.649 46.3968 169.827 46.2191 169.945 45.9912C170.068 45.7633 170.13 45.499 170.13 45.1982C170.13 44.8792 170.071 44.6035 169.952 44.3711C169.834 44.1387 169.654 43.9609 169.412 43.8379C169.171 43.7148 168.868 43.6533 168.503 43.6533H166.842V52H164.791V42.0469ZM170.355 52L168.086 47.5635L170.253 47.5498L172.55 51.9043V52H170.355ZM180.158 50.4004V52H175.147V50.4004H180.158ZM175.811 42.0469V52H173.76V42.0469H175.811ZM184.39 52H182.223L182.236 50.4004H184.39C184.927 50.4004 185.381 50.2796 185.75 50.0381C186.119 49.792 186.397 49.4342 186.584 48.9648C186.775 48.4954 186.871 47.9281 186.871 47.2627V46.7773C186.871 46.2669 186.816 45.818 186.707 45.4307C186.602 45.0433 186.445 44.7174 186.235 44.4531C186.026 44.1888 185.768 43.9906 185.463 43.8584C185.158 43.7217 184.807 43.6533 184.41 43.6533H182.182V42.0469H184.41C185.076 42.0469 185.684 42.1608 186.235 42.3887C186.791 42.612 187.272 42.9333 187.678 43.3525C188.083 43.7718 188.396 44.2731 188.614 44.8564C188.838 45.4352 188.949 46.0801 188.949 46.791V47.2627C188.949 47.9691 188.838 48.6139 188.614 49.1973C188.396 49.7806 188.083 50.2819 187.678 50.7012C187.277 51.1159 186.796 51.4372 186.235 51.665C185.679 51.8883 185.064 52 184.39 52ZM183.385 42.0469V52H181.334V42.0469H183.385ZM199.695 48.6982H201.739C201.698 49.3682 201.514 49.9629 201.186 50.4824C200.862 51.002 200.409 51.4076 199.825 51.6992C199.246 51.9909 198.549 52.1367 197.733 52.1367C197.095 52.1367 196.523 52.0273 196.018 51.8086C195.512 51.5853 195.079 51.2663 194.719 50.8516C194.363 50.4368 194.092 49.9355 193.905 49.3477C193.718 48.7598 193.625 48.1012 193.625 47.3721V46.6816C193.625 45.9525 193.721 45.2939 193.912 44.7061C194.108 44.1136 194.386 43.61 194.746 43.1953C195.111 42.7806 195.546 42.4616 196.052 42.2383C196.558 42.015 197.123 41.9033 197.747 41.9033C198.576 41.9033 199.276 42.0537 199.846 42.3545C200.42 42.6553 200.864 43.07 201.179 43.5986C201.498 44.1273 201.689 44.7288 201.753 45.4033H199.702C199.679 45.0023 199.6 44.6628 199.463 44.3848C199.326 44.1022 199.119 43.8903 198.841 43.749C198.567 43.6032 198.203 43.5303 197.747 43.5303C197.405 43.5303 197.107 43.5941 196.852 43.7217C196.596 43.8493 196.382 44.043 196.209 44.3027C196.036 44.5625 195.906 44.8906 195.819 45.2871C195.737 45.679 195.696 46.1393 195.696 46.668V47.3721C195.696 47.887 195.735 48.3405 195.812 48.7324C195.89 49.1198 196.008 49.4479 196.168 49.7168C196.332 49.9811 196.542 50.1816 196.797 50.3184C197.057 50.4505 197.369 50.5166 197.733 50.5166C198.162 50.5166 198.515 50.4482 198.793 50.3115C199.071 50.1748 199.283 49.972 199.429 49.7031C199.579 49.4342 199.668 49.0993 199.695 48.6982ZM208.582 42.0469H210.626V48.623C210.626 49.3887 210.462 50.0335 210.134 50.5576C209.81 51.0817 209.361 51.4759 208.787 51.7402C208.217 52.0046 207.561 52.1367 206.818 52.1367C206.076 52.1367 205.415 52.0046 204.836 51.7402C204.262 51.4759 203.811 51.0817 203.482 50.5576C203.159 50.0335 202.997 49.3887 202.997 48.623V42.0469H205.048V48.623C205.048 49.0697 205.118 49.4342 205.26 49.7168C205.401 49.9993 205.604 50.2067 205.868 50.3389C206.137 50.471 206.454 50.5371 206.818 50.5371C207.192 50.5371 207.509 50.471 207.769 50.3389C208.033 50.2067 208.233 49.9993 208.37 49.7168C208.511 49.4342 208.582 49.0697 208.582 48.623V42.0469ZM216.19 48.4521H213.654V46.8525H216.19C216.582 46.8525 216.901 46.7887 217.147 46.6611C217.394 46.529 217.574 46.3467 217.688 46.1143C217.801 45.8818 217.858 45.6198 217.858 45.3281C217.858 45.0319 217.801 44.7562 217.688 44.501C217.574 44.2458 217.394 44.0407 217.147 43.8857C216.901 43.7308 216.582 43.6533 216.19 43.6533H214.365V52H212.314V42.0469H216.19C216.97 42.0469 217.637 42.1882 218.193 42.4707C218.754 42.7487 219.182 43.1338 219.479 43.626C219.775 44.1182 219.923 44.681 219.923 45.3145C219.923 45.957 219.775 46.513 219.479 46.9824C219.182 47.4518 218.754 47.8141 218.193 48.0693C217.637 48.3245 216.97 48.4521 216.19 48.4521Z" fill="#CA0024"/>
<path d="M58.2129 21.9248H62.5928C62.5049 23.3604 62.1094 24.6348 61.4062 25.748C60.7129 26.8613 59.7412 27.7305 58.4912 28.3555C57.251 28.9805 55.7568 29.293 54.0088 29.293C52.6416 29.293 51.416 29.0586 50.332 28.5898C49.248 28.1113 48.3203 27.4277 47.5488 26.5391C46.7871 25.6504 46.2061 24.5762 45.8057 23.3164C45.4053 22.0566 45.2051 20.6455 45.2051 19.083V17.6035C45.2051 16.041 45.4102 14.6299 45.8203 13.3701C46.2402 12.1006 46.8359 11.0215 47.6074 10.1328C48.3887 9.24414 49.3213 8.56055 50.4053 8.08203C51.4893 7.60352 52.7002 7.36426 54.0381 7.36426C55.8154 7.36426 57.3145 7.68652 58.5352 8.33105C59.7656 8.97559 60.7178 9.86426 61.3916 10.9971C62.0752 12.1299 62.4854 13.4189 62.6221 14.8643H58.2275C58.1787 14.0049 58.0078 13.2773 57.7148 12.6816C57.4219 12.0762 56.9775 11.6221 56.3818 11.3193C55.7959 11.0068 55.0146 10.8506 54.0381 10.8506C53.3057 10.8506 52.666 10.9873 52.1191 11.2607C51.5723 11.5342 51.1133 11.9492 50.7422 12.5059C50.3711 13.0625 50.0928 13.7656 49.9072 14.6152C49.7314 15.4551 49.6436 16.4414 49.6436 17.5742V19.083C49.6436 20.1865 49.7266 21.1582 49.8926 21.998C50.0586 22.8281 50.3125 23.5312 50.6543 24.1074C51.0059 24.6738 51.4551 25.1035 52.002 25.3965C52.5586 25.6797 53.2275 25.8213 54.0088 25.8213C54.9268 25.8213 55.6836 25.6748 56.2793 25.3818C56.875 25.0889 57.3291 24.6543 57.6416 24.0781C57.9639 23.502 58.1543 22.7842 58.2129 21.9248ZM74.1504 11.3193L68.3496 29H63.6768L71.6016 7.67188H74.5752L74.1504 11.3193ZM78.9697 29L73.1543 11.3193L72.6855 7.67188H75.6885L83.6572 29H78.9697ZM78.7061 21.0605V24.5029H67.4414V21.0605H78.7061ZM99.3457 25.5723V29H88.6084V25.5723H99.3457ZM90.0293 7.67188V29H85.6348V7.67188H90.0293ZM116.177 25.5723V29H104.824V25.5723H116.177ZM106.26 7.67188V29H101.865V7.67188H106.26ZM114.697 16.3584V19.6982H104.824V16.3584H114.697ZM116.162 7.67188V11.1143H104.824V7.67188H116.162ZM136.099 7.67188V29H131.704L123.135 14.7031V29H118.74V7.67188H123.135L131.719 21.9834V7.67188H136.099ZM146.47 29H141.826L141.855 25.5723H146.47C147.622 25.5723 148.594 25.3135 149.385 24.7959C150.176 24.2686 150.771 23.502 151.172 22.4961C151.582 21.4902 151.787 20.2744 151.787 18.8486V17.8086C151.787 16.7148 151.67 15.7529 151.436 14.9229C151.211 14.0928 150.874 13.3945 150.425 12.8281C149.976 12.2617 149.424 11.8369 148.77 11.5537C148.115 11.2607 147.363 11.1143 146.514 11.1143H141.738V7.67188H146.514C147.939 7.67188 149.243 7.91602 150.425 8.4043C151.616 8.88281 152.646 9.57129 153.516 10.4697C154.385 11.3682 155.054 12.4424 155.522 13.6924C156.001 14.9326 156.24 16.3145 156.24 17.8379V18.8486C156.24 20.3623 156.001 21.7441 155.522 22.9941C155.054 24.2441 154.385 25.3184 153.516 26.2168C152.656 27.1055 151.626 27.7939 150.425 28.2822C149.233 28.7607 147.915 29 146.47 29ZM144.316 7.67188V29H139.922V7.67188H144.316ZM167.783 11.3193L161.982 29H157.31L165.234 7.67188H168.208L167.783 11.3193ZM172.603 29L166.787 11.3193L166.318 7.67188H169.321L177.29 29H172.603ZM172.339 21.0605V24.5029H161.074V21.0605H172.339ZM165.308 6.4707L168.179 1.95898H172.764L168.735 6.4707H165.308ZM179.268 7.67188H187.222C188.853 7.67188 190.254 7.91602 191.426 8.4043C192.607 8.89258 193.516 9.61523 194.15 10.5723C194.785 11.5293 195.103 12.7061 195.103 14.1025C195.103 15.2451 194.907 16.2266 194.517 17.0469C194.136 17.8574 193.594 18.5361 192.891 19.083C192.197 19.6201 191.382 20.0498 190.444 20.3721L189.053 21.1045H182.139L182.109 17.6768H187.251C188.022 17.6768 188.662 17.54 189.17 17.2666C189.678 16.9932 190.059 16.6123 190.312 16.124C190.576 15.6357 190.708 15.0693 190.708 14.4248C190.708 13.7412 190.581 13.1504 190.327 12.6523C190.073 12.1543 189.688 11.7734 189.17 11.5098C188.652 11.2461 188.003 11.1143 187.222 11.1143H183.662V29H179.268V7.67188ZM191.191 29L186.328 19.4932L190.972 19.4639L195.894 28.7949V29H191.191ZM203.159 7.67188V29H198.779V7.67188H203.159ZM224.795 17.8379V18.8486C224.795 20.4697 224.575 21.9248 224.136 23.2139C223.696 24.5029 223.076 25.6016 222.275 26.5098C221.475 27.4082 220.518 28.0967 219.404 28.5752C218.301 29.0537 217.075 29.293 215.728 29.293C214.39 29.293 213.164 29.0537 212.051 28.5752C210.947 28.0967 209.99 27.4082 209.18 26.5098C208.369 25.6016 207.739 24.5029 207.29 23.2139C206.851 21.9248 206.631 20.4697 206.631 18.8486V17.8379C206.631 16.207 206.851 14.752 207.29 13.4727C207.729 12.1836 208.35 11.085 209.15 10.1768C209.961 9.26855 210.918 8.5752 212.021 8.09668C213.135 7.61816 214.36 7.37891 215.698 7.37891C217.046 7.37891 218.271 7.61816 219.375 8.09668C220.488 8.5752 221.445 9.26855 222.246 10.1768C223.057 11.085 223.682 12.1836 224.121 13.4727C224.57 14.752 224.795 16.207 224.795 17.8379ZM220.356 18.8486V17.8086C220.356 16.6758 220.254 15.6797 220.049 14.8203C219.844 13.9609 219.541 13.2383 219.141 12.6523C218.74 12.0664 218.252 11.627 217.676 11.334C217.1 11.0312 216.44 10.8799 215.698 10.8799C214.956 10.8799 214.297 11.0312 213.721 11.334C213.154 11.627 212.671 12.0664 212.271 12.6523C211.88 13.2383 211.582 13.9609 211.377 14.8203C211.172 15.6797 211.069 16.6758 211.069 17.8086V18.8486C211.069 19.9717 211.172 20.9678 211.377 21.8369C211.582 22.6963 211.885 23.4238 212.285 24.0195C212.686 24.6055 213.174 25.0498 213.75 25.3525C214.326 25.6553 214.985 25.8066 215.728 25.8066C216.47 25.8066 217.129 25.6553 217.705 25.3525C218.281 25.0498 218.765 24.6055 219.155 24.0195C219.546 23.4238 219.844 22.6963 220.049 21.8369C220.254 20.9678 220.356 19.9717 220.356 18.8486Z" fill="url(#paint0_linear_508_1421)"/>
<defs>
<linearGradient id="paint0_linear_508_1421" x1="135" y1="0" x2="135" y2="38" gradientUnits="userSpaceOnUse">
<stop stop-color="white"/>
<stop offset="1" stop-color="#D9D9D9" stop-opacity="0.8"/>
</linearGradient>
</defs>
</svg>
